<?xml version="1.0" standalone="no"?>
<!DOCTYPE svg PUBLIC "-//W3C//DTD SVG 20010904//EN"
 "http://www.w3.org/TR/2001/REC-SVG-20010904/DTD/svg10.dtd">
<svg version="1.0" xmlns="http://www.w3.org/2000/svg"
 width="530.000000pt" height="530.000000pt" viewBox="0 0 530.000000 530.000000"
 preserveAspectRatio="xMidYMid meet">
<metadata>
Created by potrace 1.14, written by Peter Selinger 2001-2017
</metadata>
<g transform="translate(0.000000,530.000000) scale(0.100000,-0.100000)"
fill="#000000" stroke="none">
<path d="M0 2650 l0 -2650 2650 0 2650 0 0 2650 0 2650 -2650 0 -2650 0 0
-2650z m2750 2365 c467 -68 863 -276 1207 -636 342 -358 533 -856 533 -1389 0
-247 -46 -487 -135 -712 -7 -17 4 -18 141 -18 233 0 381 -39 484 -128 92 -78
99 -171 18 -258 -114 -124 -317 -174 -703 -174 l-214 0 -40 -47 c-133 -159
-168 -198 -249 -273 l-89 -83 19 -33 c32 -54 24 -180 -13 -211 -8 -6 -59 -14
-114 -18 l-101 -7 -76 -146 c-43 -81 -132 -250 -200 -377 l-123 -230 -117 0
c-64 0 -120 3 -124 8 -7 7 31 154 117 447 22 74 42 142 45 151 4 14 -7 13 -88
-8 -142 -36 -273 -46 -553 -40 -278 6 -425 25 -605 76 -228 65 -466 186 -672
342 -227 172 -481 491 -609 764 -174 371 -242 904 -163 1291 83 411 278 772
594 1097 370 382 771 572 1335 631 79 8 392 -4 495 -19z"/>
<path d="M2280 4944 c-295 -28 -523 -90 -760 -207 l-125 -62 40 -5 c33 -5 36
-7 18 -13 -11 -4 -37 -7 -57 -5 -20 1 -42 -4 -48 -10 -23 -23 11 -34 77 -26
33 4 89 8 123 8 58 1 66 -2 88 -27 15 -18 24 -41 24 -63 0 -76 -53 -130 -200
-204 -147 -74 -194 -132 -176 -217 4 -16 40 -71 81 -123 43 -54 79 -111 86
-136 7 -24 15 -41 18 -39 4 2 5 -31 3 -73 l-2 -77 30 55 c39 73 38 57 -1 -23
-29 -58 -30 -65 -19 -106 15 -56 30 -38 30 35 0 89 52 110 120 48 65 -59 98
-139 113 -278 13 -109 16 -121 41 -143 15 -12 37 -23 49 -23 76 0 253 -23 276
-35 16 -8 43 -37 61 -65 18 -27 37 -47 43 -43 6 3 7 1 3 -6 -11 -17 22 -64 40
-57 9 3 12 1 9 -4 -3 -6 3 -10 15 -10 12 0 34 -7 49 -15 16 -8 31 -11 35 -8 3
4 6 2 6 -4 0 -12 107 -129 113 -123 2 3 10 14 16 25 l13 20 -7 -20 c-12 -34
-11 -47 7 -59 14 -8 23 -8 39 2 12 8 18 9 14 3 -4 -7 4 -11 19 -11 18 0 30 -9
41 -30 18 -36 37 -38 59 -7 l17 22 -12 -23 c-6 -13 -9 -26 -6 -28 3 -3 34 0
69 7 36 6 82 9 102 5 49 -9 111 -72 150 -149 40 -80 32 -100 -56 -144 -70 -34
-99 -66 -123 -134 -20 -54 -20 -139 -1 -139 10 0 14 14 14 48 0 56 29 120 67
150 14 12 55 30 91 42 83 28 93 48 71 135 -8 33 -14 61 -12 63 2 2 13 -23 25
-55 37 -99 17 -139 -86 -169 -65 -19 -114 -68 -124 -124 -14 -74 -8 -80 75
-80 l72 0 38 55 c21 31 43 59 49 62 6 4 -6 -16 -27 -45 -20 -29 -37 -54 -37
-57 0 -3 18 -5 39 -5 31 0 44 6 61 28 l22 27 -16 -28 -16 -27 32 0 c19 0 42 9
57 23 14 12 19 14 12 5 -12 -16 -11 -18 13 -18 21 0 26 4 22 18 -9 29 -123
402 -153 502 l-29 95 -64 3 c-52 2 -67 0 -77 -14 -7 -10 -13 -13 -13 -7 0 19
30 43 53 44 12 1 39 0 61 -1 25 -1 36 2 32 9 -4 6 -9 20 -11 30 -2 10 -19 72
-38 138 -20 65 -40 136 -46 158 l-11 41 -83 -1 c-75 0 -88 3 -123 28 -22 15
-49 27 -60 27 -23 0 -100 47 -127 77 -22 25 -15 88 12 102 9 5 81 9 160 9 79
1 145 2 146 4 1 2 -9 41 -22 86 -19 63 -22 87 -14 95 13 13 177 23 215 13 25
-6 41 -35 310 -542 118 -224 108 -214 220 -214 32 0 61 -6 76 -17 13 -10 72
-29 130 -44 132 -33 199 -67 265 -133 48 -48 62 -73 100 -183 3 -9 26 -13 69
-13 58 0 66 -3 84 -27 l19 -26 7 37 c9 46 -5 65 -48 67 -29 2 -29 2 -4 6 15 2
36 -1 47 -6 18 -10 20 -6 30 42 43 215 39 239 -80 442 -19 33 -20 37 -5 25 26
-20 65 -84 92 -150 l23 -55 1 119 c0 115 -1 121 -34 190 -19 39 -55 98 -80
131 -24 33 -43 62 -41 64 8 7 56 -55 101 -129 l45 -75 -6 60 c-4 33 -15 99
-25 148 -20 99 -43 138 -125 217 -73 68 -54 64 23 -6 34 -31 62 -51 62 -45 0
19 -78 232 -95 257 -9 14 -44 43 -78 65 -82 53 -84 57 -9 20 l63 -32 -25 48
c-129 254 -402 545 -668 712 -64 40 -69 42 -90 27 -31 -22 -74 -20 -115 5 -44
27 -73 21 -161 -30 -37 -22 -93 -50 -125 -62 -38 -14 -81 -43 -122 -79 -38
-35 -82 -64 -111 -75 -78 -27 -99 -41 -99 -67 0 -20 7 -24 50 -31 28 -4 95
-17 150 -29 55 -12 136 -22 180 -23 90 -2 112 -9 120 -36 16 -50 -55 -89 -165
-89 -54 0 -70 -3 -70 -14 0 -8 5 -18 10 -21 17 -11 40 -63 34 -78 -3 -9 -17
-20 -32 -26 -15 -7 -34 -26 -42 -44 -13 -27 -24 -34 -75 -47 -75 -19 -89 -45
-61 -112 54 -129 56 -164 11 -212 -17 -19 -34 -26 -59 -26 -43 0 -58 19 -82
109 -15 53 -24 67 -55 88 -44 29 -99 39 -128 23 -17 -8 -20 -15 -12 -24 8 -10
6 -20 -10 -40 -30 -38 -76 -35 -142 9 -119 80 -232 10 -232 -145 0 -54 5 -74
31 -120 17 -30 38 -77 48 -105 30 -83 68 -101 143 -70 20 9 60 34 88 55 29 22
63 40 77 40 35 0 58 -30 58 -74 0 -32 -8 -46 -55 -95 -30 -32 -55 -63 -55 -69
0 -24 36 -31 102 -21 123 19 152 -12 146 -158 l-3 -98 65 0 c51 0 72 -5 97
-23 17 -12 36 -22 41 -22 6 0 27 20 48 45 32 39 41 45 73 43 l36 -1 -33 -4
c-23 -3 -42 -16 -69 -49 -42 -49 -61 -54 -105 -23 -25 18 -39 21 -87 16 -86
-9 -96 1 -85 94 10 90 7 119 -14 143 -15 16 -27 17 -110 11 -81 -6 -96 -5
-113 11 -31 28 -23 50 41 119 63 68 70 84 44 109 -22 22 -27 21 -79 -24 -66
-57 -102 -73 -166 -74 -69 -1 -90 15 -118 89 -11 29 -36 82 -55 119 -32 60
-36 76 -36 140 0 97 32 165 98 203 27 16 58 26 76 25 23 -2 40 7 75 40 45 42
45 42 11 4 -21 -23 -30 -40 -23 -43 6 -2 29 -17 51 -33 30 -22 42 -26 51 -17
9 9 11 8 6 -5 -6 -14 -2 -18 17 -18 17 0 32 11 49 37 20 31 102 93 84 63 -3
-6 4 -10 17 -10 13 0 47 -11 75 -25 56 -26 72 -49 93 -133 6 -24 21 -53 32
-64 20 -20 22 -20 35 -3 19 28 16 73 -12 156 -39 111 -28 142 61 187 28 14 45
31 52 52 7 18 22 34 37 40 l26 10 -20 26 c-12 15 -21 39 -21 55 0 43 32 59
120 59 142 0 165 24 32 33 -49 4 -120 13 -159 21 -38 8 -105 19 -147 25 -86
10 -116 29 -116 70 0 52 33 87 105 111 49 16 81 36 123 75 60 55 92 75 157 95
22 7 75 33 118 57 95 55 137 59 190 19 25 -19 43 -26 57 -21 11 3 20 10 20 14
0 14 -193 99 -319 141 -251 84 -577 125 -811 104z m340 -64 c181 -19 350 -53
350 -72 0 -12 -35 -10 -99 6 -197 51 -552 63 -766 26 -128 -22 -295 -64 -412
-103 -40 -14 -73 -23 -73 -21 0 9 118 56 209 84 135 41 259 64 451 83 76 8
250 6 340 -3z m415 -210 c-3 -5 -10 -10 -15 -10 -30 0 -123 -46 -170 -85 -30
-25 -80 -55 -110 -66 -30 -11 -71 -30 -90 -41 l-35 -20 19 20 c10 12 49 33 86
48 38 15 90 44 116 66 51 42 85 62 143 83 44 17 64 18 56 5z m479 -121 c32
-25 34 -66 4 -104 -19 -24 -20 -31 -10 -59 21 -58 10 -96 -28 -96 -10 0 -78
20 -152 45 -105 35 -150 45 -201 45 -59 0 -68 3 -86 26 -30 38 -27 52 21 96
53 48 105 66 159 51 28 -7 54 -7 96 2 94 21 166 18 197 -6z m-1400 -11 c-43
-74 -304 -455 -304 -444 0 9 299 456 306 456 3 0 2 -6 -2 -12z m1483 -50 c-3
-7 -5 -2 -5 12 0 14 2 19 5 13 2 -7 2 -19 0 -25z m-1657 -32 c0 -2 -8 -10 -17
-17 -16 -13 -17 -12 -4 4 13 16 21 21 21 13z m-249 -34 c-23 -44 -98 -104
-184 -147 -51 -26 -102 -57 -114 -68 -29 -26 -30 -69 -3 -113 12 -18 17 -35
11 -38 -15 -9 -52 51 -58 92 -7 55 25 88 148 147 64 31 121 67 153 97 57 53
61 55 47 30z m553 -14 c-21 -36 -108 -164 -117 -173 -12 -12 9 24 71 118 25
37 47 67 49 67 2 0 1 -6 -3 -12z m-185 -130 c-57 -86 -94 -135 -74 -98 19 34
126 190 131 190 2 0 -23 -42 -57 -92z m1511 -3 c0 -8 -59 -35 -77 -35 -10 1
-1 7 20 15 21 7 41 16 44 19 8 7 13 8 13 1z m-519 -268 c-10 -9 -11 -8 -5 6 3
10 9 15 12 12 3 -3 0 -11 -7 -18z m-461 -90 c0 -2 -12 -14 -27 -28 l-28 -24
24 28 c23 25 31 32 31 24z m-190 -30 c0 -2 -10 -12 -22 -23 l-23 -19 19 23
c18 21 26 27 26 19z m1101 -24 c-12 -20 -14 -14 -5 12 4 9 9 14 11 11 3 -2 0
-13 -6 -23z m-1041 3 c0 -2 -8 -10 -17 -17 -16 -13 -17 -12 -4 4 13 16 21 21
21 13z m261 -63 c23 -38 32 -73 21 -73 -6 0 -15 15 -21 32 -7 18 -28 50 -49
72 l-37 39 35 -21 c19 -11 42 -33 51 -49z m759 17 c-6 -11 -13 -20 -16 -20 -2
0 0 9 6 20 6 11 13 20 16 20 2 0 0 -9 -6 -20z m-1050 7 c0 -2 -10 -12 -22 -23
l-23 -19 19 23 c18 21 26 27 26 19z m1030 -41 c0 -2 -8 -10 -17 -17 -16 -13
-17 -12 -4 4 13 16 21 21 21 13z m-553 -58 c-2 -13 -4 -5 -4 17 -1 22 1 32 4
23 2 -10 2 -28 0 -40z m-1142 -123 c28 -57 45 -135 45 -206 0 -56 24 -89 64
-89 14 0 27 -4 31 -9 10 -18 -33 -22 -69 -7 -39 16 -42 23 -50 131 -7 92 -27
157 -71 229 -19 32 -35 61 -35 65 1 14 63 -68 85 -114z m1736 24 c-5 -13 -10
-19 -10 -12 -1 15 10 45 15 40 3 -2 0 -15 -5 -28z m-14 -111 c-2 -18 -4 -6 -4
27 0 33 2 48 4 33 2 -15 2 -42 0 -60z m304 -75 c13 -16 12 -17 -3 -4 -17 13
-22 21 -14 21 2 0 10 -8 17 -17z m74 -115 c29 -63 34 -153 9 -184 -15 -18 -15
-18 -5 3 19 39 13 124 -14 181 -13 28 -22 52 -19 52 3 0 16 -24 29 -52z
m-1436 -44 c-41 -43 -121 -84 -166 -84 -53 0 -38 16 32 35 35 9 86 32 112 51
26 19 50 34 52 34 3 0 -11 -16 -30 -36z m504 -121 c-7 -2 -19 -2 -25 0 -7 3
-2 5 12 5 14 0 19 -2 13 -5z m-335 -82 c8 -5 -10 -10 -49 -15 -84 -8 -109 -8
-109 3 0 17 134 27 158 12z m-298 -15 c0 -2 -8 -10 -17 -17 -16 -13 -17 -12
-4 4 13 16 21 21 21 13z m1802 -152 c37 -19 98 -73 98 -87 0 -6 -17 5 -37 25
-21 20 -60 48 -88 63 -27 14 -39 23 -25 19 14 -3 37 -13 52 -20z"/>
<path d="M3365 4518 c-22 -5 -80 -7 -130 -3 -109 7 -151 -4 -158 -43 -3 -15
-3 -29 -1 -31 2 -2 33 -5 70 -7 45 -2 105 -17 195 -48 103 -35 129 -41 123
-28 -17 41 -16 65 5 92 28 38 27 58 -5 70 -30 12 -45 11 -99 -2z m-139 -32
c17 -13 14 -15 -38 -13 -32 1 -58 5 -58 8 0 23 66 26 96 5z"/>
<path d="M1229 4558 c-106 -78 -326 -298 -406 -403 -290 -384 -433 -773 -433
-1176 l0 -127 44 -88 c56 -112 135 -207 237 -288 201 -159 536 -294 869 -350
89 -15 321 -38 326 -33 1 1 -11 34 -28 72 -17 39 -59 136 -94 218 -72 170 -71
177 19 177 69 0 119 -15 138 -43 9 -12 69 -101 133 -197 65 -96 120 -177 122
-179 1 -2 31 2 66 8 35 6 153 17 263 26 110 8 218 17 240 20 l40 6 1 57 c1 87
20 138 68 186 32 33 56 46 97 56 65 15 79 25 79 55 0 25 -61 112 -101 144 -41
32 -71 34 -156 11 -94 -26 -134 -21 -164 20 -12 15 -28 26 -35 23 -32 -12 -86
21 -151 92 -62 69 -81 82 -172 116 -26 9 -47 32 -87 94 -29 45 -60 85 -70 89
-9 3 -73 11 -142 17 -197 16 -229 38 -243 171 -16 144 -28 190 -61 245 -18 29
-36 53 -40 53 -8 0 -12 -48 -13 -144 0 -64 -20 -79 -71 -51 -62 33 -85 87 -96
228 -12 160 -25 196 -103 292 -152 186 -118 292 135 416 126 62 168 98 176
150 9 52 -20 74 -94 69 -122 -8 -171 -4 -190 14 -19 16 -23 14 -103 -46z m31
-95 c-257 -211 -465 -491 -600 -808 -94 -221 -141 -413 -175 -707 -4 -38 -11
-58 -20 -58 -24 0 -25 10 -9 165 13 138 76 383 134 530 144 362 392 704 633
873 74 52 98 55 37 5z m-81 -190 c-23 -45 -25 -120 -4 -171 13 -32 13 -35 0
-18 -32 42 -32 153 -1 201 24 37 27 31 5 -12z m-6 -293 c31 -52 11 -32 -27 28
-20 31 -27 45 -14 30 13 -15 32 -41 41 -58z m-282 -587 c-12 -20 -14 -14 -5
12 4 9 9 14 11 11 3 -2 0 -13 -6 -23z m-32 -98 c-11 -39 -23 -106 -28 -150 -6
-60 -9 -68 -10 -34 -2 65 41 270 54 257 2 -2 -5 -35 -16 -73z m896 -169 c17
-3 63 -10 103 -15 70 -9 112 -29 112 -54 0 -6 -11 0 -25 13 -19 18 -41 24
-108 30 -74 7 -167 38 -167 55 0 3 12 -1 28 -9 15 -7 41 -16 57 -20z m-1048
-8 c-3 -8 -6 -5 -6 6 -1 11 2 17 5 13 3 -3 4 -12 1 -19z m-10 -40 c-3 -8 -6
-5 -6 6 -1 11 2 17 5 13 3 -3 4 -12 1 -19z m-10 -80 c-3 -7 -5 -2 -5 12 0 14
2 19 5 13 2 -7 2 -19 0 -25z m-10 -40 c-3 -8 -6 -5 -6 6 -1 11 2 17 5 13 3 -3
4 -12 1 -19z m-27 -71 c0 -2 -10 -12 -22 -23 l-23 -19 19 23 c18 21 26 27 26
19z m707 -149 c-3 -8 -6 -5 -6 6 -1 11 2 17 5 13 3 -3 4 -12 1 -19z m10 -40
c-3 -8 -6 -5 -6 6 -1 11 2 17 5 13 3 -3 4 -12 1 -19z m41 -80 c18 -32 30 -58
27 -58 -6 0 -65 103 -65 114 0 12 1 10 38 -56z m1158 22 c5 -5 27 -16 49 -24
22 -8 32 -15 22 -15 -18 -1 -97 35 -97 44 0 8 16 5 26 -5z m-1289 -62 c-3 -7
-5 -2 -5 12 0 14 2 19 5 13 2 -7 2 -19 0 -25z m10 -70 c-3 -7 -5 -2 -5 12 0
14 2 19 5 13 2 -7 2 -19 0 -25z m68 -154 c16 -26 16 -27 0 -9 -20 23 -65 120
-65 138 1 7 11 -13 24 -44 13 -30 31 -69 41 -85z"/>
<path d="M2970 3642 c0 -6 -14 -14 -32 -17 -26 -6 -29 -9 -14 -17 9 -5 29 -8
44 -6 26 3 28 0 94 -187 221 -626 387 -1115 379 -1115 -4 0 -45 105 -90 233
l-83 232 -47 -3 c-57 -5 -79 -21 -30 -23 l34 -2 -31 -6 -31 -6 52 -190 52
-190 64 -6 64 -6 -62 -1 c-45 -2 -61 -5 -58 -14 4 -9 27 -12 78 -10 51 2 68 0
57 -7 -8 -6 -40 -11 -72 -11 l-56 0 7 -27 8 -28 131 4 c72 2 175 6 230 10 l98
6 -161 295 c-89 162 -259 475 -377 695 -127 235 -223 401 -232 403 -9 2 -16
-1 -16 -6z"/>
<path d="M3030 3648 c0 -4 59 -117 131 -250 72 -134 190 -353 262 -488 71
-135 148 -279 170 -320 22 -41 50 -93 62 -115 12 -22 44 -83 71 -134 26 -52
49 -90 51 -84 3 7 -1 21 -7 32 -6 12 -8 21 -6 21 3 0 13 -15 22 -32 10 -18 19
-28 21 -22 2 6 -23 58 -55 115 -71 126 -522 961 -618 1146 -38 73 -72 133 -77
133 -4 0 0 -11 9 -25 9 -14 14 -28 12 -31 -3 -3 -15 10 -27 28 -11 18 -21 30
-21 26z"/>
<path d="M2908 3633 c7 -3 16 -2 19 1 4 3 -2 6 -13 5 -11 0 -14 -3 -6 -6z"/>
<path d="M2920 3580 c0 -5 10 -11 23 -11 16 -1 18 -2 5 -6 -10 -2 -18 -8 -18
-11 0 -4 21 -80 47 -169 l47 -163 38 0 c21 0 38 4 38 9 0 5 -28 88 -61 185
-60 173 -62 176 -90 176 -16 0 -29 -4 -29 -10z"/>
<path d="M2584 3446 c-13 -33 63 -87 137 -99 19 -3 53 -17 74 -31 27 -19 51
-26 84 -26 70 0 75 7 56 73 -14 49 -20 57 -51 67 -19 7 -72 13 -117 15 -45 2
-103 7 -129 10 -39 6 -49 4 -54 -9z m112 -31 c24 -10 54 -13 92 -9 31 3 64 1
72 -5 22 -15 5 -24 -20 -11 -15 8 -30 8 -55 0 -29 -9 -41 -7 -92 14 -32 14
-52 25 -45 26 7 0 29 -7 48 -15z"/>
<path d="M3040 3200 c-9 -6 -11 -10 -3 -10 7 0 10 -6 8 -12 -3 -7 19 -98 48
-203 l54 -190 58 -3 c44 -2 56 0 53 10 -3 7 -29 81 -57 163 -90 256 -90 255
-120 255 -14 0 -33 -5 -41 -10z"/>
<path d="M3532 2858 c13 -22 31 -43 41 -46 15 -4 16 -7 5 -13 -11 -8 -11 -10
0 -18 8 -4 13 -12 12 -17 0 -5 8 -10 20 -12 18 -3 20 2 20 56 0 88 -3 92 -67
92 l-54 0 23 -42z"/>
<path d="M3647 2878 c10 -30 10 -125 -1 -163 -8 -29 -8 -29 10 -13 34 33 29
198 -6 198 -8 0 -8 -8 -3 -22z"/>
<path d="M3722 2818 c3 -7 25 -16 50 -20 53 -7 162 -53 180 -76 11 -14 10 -15
-7 -7 -70 28 -146 53 -181 59 l-42 6 -11 -46 c-9 -37 -18 -48 -41 -57 -17 -6
-30 -16 -29 -22 0 -5 47 -98 102 -205 85 -162 105 -194 122 -192 10 2 25 11
32 20 12 16 13 16 7 0 -5 -16 1 -18 50 -18 l56 0 36 55 c20 30 39 55 41 55 5
0 -3 -14 -39 -67 l-29 -43 49 0 c49 0 51 1 82 50 18 28 34 50 37 50 3 0 -2
-11 -11 -25 -9 -14 -23 -36 -32 -50 l-16 -25 37 0 c24 0 43 6 51 18 13 16 14
16 8 0 -5 -13 -1 -18 14 -18 15 0 26 17 49 73 44 104 47 116 33 143 -17 31
-33 36 -85 24 -69 -15 -89 -2 -128 82 -54 118 -140 183 -298 227 -88 25 -92
25 -87 9z m388 -418 c-6 -11 -13 -20 -16 -20 -2 0 0 9 6 20 6 11 13 20 16 20
2 0 0 -9 -6 -20z m150 -60 c-6 -11 -13 -20 -16 -20 -2 0 0 9 6 20 6 11 13 20
16 20 2 0 0 -9 -6 -20z"/>
<path d="M3600 2730 c0 -5 5 -10 10 -10 6 0 10 5 10 10 0 6 -4 10 -10 10 -5 0
-10 -4 -10 -10z"/>
<path d="M414 2580 c89 -452 213 -709 497 -1028 45 -51 83 -91 85 -89 2 2 -21
48 -51 103 -30 54 -55 104 -54 109 0 6 7 -3 15 -20 102 -194 158 -264 289
-361 39 -28 39 -28 24 -4 -74 115 -144 240 -135 240 2 0 19 -26 36 -57 18 -32
58 -97 88 -144 51 -79 63 -92 139 -138 46 -28 86 -51 89 -51 3 0 -14 28 -38
63 -43 60 -76 116 -41 68 105 -143 108 -146 173 -178 36 -18 85 -39 110 -48
l45 -15 -61 62 c-55 57 -111 128 -101 128 2 0 26 -28 54 -62 65 -82 144 -142
213 -162 77 -22 180 -45 180 -40 0 2 -12 10 -27 18 -39 20 -142 111 -199 176
-37 42 -29 36 39 -28 101 -96 190 -156 260 -177 28 -8 100 -17 161 -20 l111
-5 -50 18 c-27 11 -72 31 -100 44 -52 27 -175 114 -175 124 0 3 17 -8 38 -25
63 -49 182 -108 262 -130 72 -20 261 -42 345 -40 l40 1 -30 10 c-101 35 -185
74 -246 113 -74 48 -97 74 -26 30 143 -90 336 -152 425 -139 92 13 94 18 22
53 -36 18 -85 50 -110 72 l-45 40 63 -41 c35 -23 88 -52 117 -66 l54 -23 30
38 c36 45 38 57 13 65 -10 4 -32 20 -48 37 l-29 32 44 -32 c24 -17 50 -31 57
-31 14 0 44 60 104 210 21 52 59 137 84 189 63 129 62 192 -2 225 -55 28 -197
56 -336 66 -360 26 -536 42 -593 52 -35 6 -65 10 -67 7 -2 -2 -45 -67 -96
-144 -133 -199 -179 -259 -203 -267 -29 -8 -131 -10 -151 -2 -9 3 -16 14 -16
24 0 10 36 101 79 204 l79 186 -33 0 c-51 0 -307 46 -420 76 -433 112 -768
339 -946 640 -22 38 -38 58 -35 44z m2381 -1161 c-46 -13 -113 -21 -195 -24
l-125 -4 120 9 c66 5 145 16 175 24 30 8 64 14 75 14 11 0 -11 -9 -50 -19z
m-332 -16 c-7 -2 -19 -2 -25 0 -7 3 -2 5 12 5 14 0 19 -2 13 -5z"/>
<path d="M507 2525 c24 -41 130 -158 192 -212 250 -214 553 -341 976 -408 88
-14 170 -27 181 -30 15 -3 23 1 27 13 2 9 8 24 11 33 6 14 -9 17 -115 23 -67
4 -141 9 -166 13 -44 6 -65 25 -46 44 5 5 83 15 174 22 l164 12 -150 6 c-368
15 -843 178 -1101 378 -11 9 5 -8 35 -37 77 -74 201 -155 361 -235 134 -67
137 -79 6 -25 -154 63 -307 169 -453 313 -56 55 -99 96 -96 90z"/>
<path d="M1760 2510 l-25 -8 28 -1 c31 -1 34 -5 178 -250 75 -127 89 -146 110
-143 32 3 33 6 14 39 l-17 28 25 -27 c15 -17 32 -25 41 -22 11 4 2 23 -42 78
-31 39 -95 126 -142 193 -47 67 -91 122 -97 123 -17 0 -16 -5 3 -42 9 -16 11
-28 6 -24 -5 3 -15 19 -22 36 -13 31 -19 33 -60 20z"/>
<path d="M1760 2472 c0 -8 159 -414 164 -419 1 -1 8 2 16 7 12 7 11 15 -2 49
-19 47 -7 48 12 1 12 -30 42 -41 55 -20 3 6 -46 96 -111 200 -103 169 -134
210 -134 182z"/>
<path d="M4105 2179 c-4 -6 -4 -13 -1 -16 8 -8 36 5 36 17 0 13 -27 13 -35 -1z"/>
<path d="M4156 2166 c-9 -35 -43 -40 -73 -10 -29 29 -69 32 -78 5 -12 -38 -68
-37 -80 0 -8 24 -65 27 -65 4 0 -38 -69 -39 -84 0 -8 23 -63 20 -71 -4 -9 -30
-36 -34 -67 -11 -35 26 -79 26 -96 0 -7 -11 -23 -20 -37 -20 -14 0 -29 8 -35
20 -16 29 -63 27 -84 -5 -20 -30 -51 -32 -68 -5 -15 24 -78 29 -78 6 0 -7 -7
-19 -15 -26 -19 -15 -65 -5 -65 15 0 11 -11 15 -39 15 -30 0 -40 -4 -44 -20
-7 -28 -62 -28 -77 0 -8 16 -17 19 -38 13 -15 -3 -33 -15 -40 -25 -17 -24 -48
-23 -69 2 -23 26 -70 27 -78 1 -10 -31 -43 -36 -70 -11 -23 22 -24 22 -217 11
-212 -11 -431 -40 -388 -51 20 -5 14 -8 -30 -16 l-55 -9 83 -3 c92 -3 108 -18
32 -28 -47 -6 -50 -8 -50 -35 0 -23 4 -29 23 -29 34 0 67 -11 67 -22 0 -6 -29
-9 -74 -6 -78 3 -82 -7 -7 -18 24 -4 38 -10 31 -14 -26 -16 126 -36 389 -50
168 -9 176 -9 193 10 25 27 44 25 70 -5 26 -30 63 -32 78 -5 6 12 21 20 35 20
14 0 30 -9 37 -20 17 -26 62 -26 89 1 25 25 51 21 64 -9 13 -30 69 -31 85 -1
15 27 61 22 75 -8 13 -30 65 -32 83 -3 7 11 21 20 32 20 11 0 25 -9 32 -20 16
-25 83 -28 92 -5 9 24 67 20 73 -5 4 -15 14 -20 37 -20 19 0 38 8 49 20 22 26
53 25 69 -2 18 -31 57 -31 81 -1 23 29 58 27 72 -4 11 -27 65 -33 65 -8 0 19
36 38 60 30 10 -3 22 -15 25 -26 9 -27 61 -26 70 1 12 38 85 34 85 -5 0 -28
206 -30 435 -4 110 13 163 28 241 67 157 79 174 172 46 248 -99 60 -255 83
-548 84 l-172 0 -6 -24z m654 -81 c107 -68 93 -144 -37 -209 -61 -31 -79 -32
-91 -8 -11 21 -6 39 24 75 31 36 30 62 -1 99 -26 31 -32 67 -14 85 13 13 57
-3 119 -42z m-320 -24 c63 -9 63 -9 -25 -5 -453 20 -1203 11 -1730 -20 -204
-13 -235 -13 -224 -2 5 5 345 24 629 36 244 10 1262 3 1350 -9z m-1760 -131
c545 -29 1305 -40 1649 -24 75 4 134 4 131 2 -20 -21 -816 -33 -1210 -19 -454
16 -741 31 -770 41 -35 12 -20 12 200 0z"/>
<path d="M4696 2113 c-4 -9 0 -26 8 -38 11 -17 21 -21 47 -17 l33 5 -25 19
c-13 10 -32 25 -41 33 -14 11 -17 11 -22 -2z"/>
<path d="M4823 2037 c19 -29 23 -72 7 -82 -7 -4 -9 2 -4 19 9 35 -19 76 -51
76 -26 0 -31 -14 -16 -39 6 -10 4 -25 -5 -43 -16 -30 -18 -28 41 -33 44 -3 71
44 49 87 -8 15 -20 30 -26 34 -7 5 -5 -4 5 -19z"/>
<path d="M4711 1917 c-6 -6 -11 -19 -11 -29 0 -16 3 -16 35 3 19 12 35 22 35
24 0 9 -51 10 -59 2z"/>
<path d="M3808 2168 c9 -9 15 -9 24 0 9 9 7 12 -12 12 -19 0 -21 -3 -12 -12z"/>
<path d="M3950 2170 c0 -5 6 -10 14 -10 8 0 18 5 21 10 3 6 -3 10 -14 10 -12
0 -21 -4 -21 -10z"/>
<path d="M3498 2158 c9 -9 15 -9 24 0 9 9 7 12 -12 12 -19 0 -21 -3 -12 -12z"/>
<path d="M3658 2163 c7 -3 16 -2 19 1 4 3 -2 6 -13 5 -11 0 -14 -3 -6 -6z"/>
<path d="M3185 2150 c-3 -5 3 -10 14 -10 12 0 21 5 21 10 0 6 -6 10 -14 10 -8
0 -18 -4 -21 -10z"/>
<path d="M3348 2153 c7 -3 16 -2 19 1 4 3 -2 6 -13 5 -11 0 -14 -3 -6 -6z"/>
<path d="M3028 2138 c9 -9 15 -9 24 0 9 9 7 12 -12 12 -19 0 -21 -3 -12 -12z"/>
<path d="M2878 2133 c6 -2 18 -2 25 0 6 3 1 5 -13 5 -14 0 -19 -2 -12 -5z"/>
<path d="M2728 2123 c7 -3 16 -2 19 1 4 3 -2 6 -13 5 -11 0 -14 -3 -6 -6z"/>
<path d="M1910 1991 c-53 -6 -54 -6 -20 -13 87 -18 152 -20 161 -7 5 8 9 17 9
22 0 8 -65 7 -150 -2z"/>
<path d="M1920 1910 c0 -6 -34 -98 -76 -203 -42 -106 -79 -198 -81 -204 -3 -7
1 -13 9 -13 11 0 220 324 246 381 1 3 -9 11 -23 17 -24 11 -27 10 -37 -18 -6
-17 -12 -29 -14 -27 -3 2 0 16 5 30 9 22 7 28 -9 37 -14 8 -20 8 -20 0z"/>
<path d="M1986 1782 c-27 -48 -80 -137 -118 -198 -59 -97 -72 -112 -101 -118
-25 -5 -29 -9 -17 -16 30 -19 57 -10 83 27 29 41 37 38 11 -3 -9 -13 -14 -27
-10 -31 3 -3 7 -4 9 -2 2 2 32 45 67 94 35 50 99 136 142 193 43 57 78 105 78
107 0 14 -38 7 -53 -10 -18 -20 -18 -20 -7 2 8 18 7 24 -9 33 -11 5 -21 10
-23 10 -2 0 -25 -39 -52 -88z"/>
<path d="M2728 1833 c7 -3 16 -2 19 1 4 3 -2 6 -13 5 -11 0 -14 -3 -6 -6z"/>
<path d="M2875 1830 c-3 -5 3 -10 15 -10 12 0 18 5 15 10 -3 6 -10 10 -15 10
-5 0 -12 -4 -15 -10z"/>
<path d="M3030 1820 c0 -5 7 -10 15 -10 8 0 15 5 15 10 0 6 -7 10 -15 10 -8 0
-15 -4 -15 -10z"/>
<path d="M3185 1820 c-4 -6 3 -10 14 -10 25 0 27 6 6 13 -8 4 -17 2 -20 -3z"/>
<path d="M3348 1803 c7 -3 16 -2 19 1 4 3 -2 6 -13 5 -11 0 -14 -3 -6 -6z"/>
<path d="M3495 1800 c-3 -5 3 -10 15 -10 12 0 18 5 15 10 -3 6 -10 10 -15 10
-5 0 -12 -4 -15 -10z"/>
<path d="M3658 1793 c7 -3 16 -2 19 1 4 3 -2 6 -13 5 -11 0 -14 -3 -6 -6z"/>
<path d="M3805 1790 c3 -5 13 -10 21 -10 8 0 14 5 14 10 0 6 -9 10 -21 10 -11
0 -17 -4 -14 -10z"/>
<path d="M3950 1790 c0 -5 9 -10 21 -10 11 0 17 5 14 10 -3 6 -13 10 -21 10
-8 0 -14 -4 -14 -10z"/>
<path d="M4100 1790 c0 -5 9 -10 20 -10 11 0 20 5 20 10 0 6 -9 10 -20 10 -11
0 -20 -4 -20 -10z"/>
<path d="M3168 1720 c18 -11 41 -34 50 -50 20 -36 28 -37 36 -7 10 38 -24 72
-75 75 l-44 3 33 -21z"/>
<path d="M3255 1720 c3 -5 8 -10 11 -10 2 0 4 5 4 10 0 6 -5 10 -11 10 -5 0
-7 -4 -4 -10z"/>
<path d="M3298 1724 c-22 -22 -4 -32 72 -38 44 -4 80 -11 80 -15 0 -11 -253
-744 -392 -1136 l-64 -180 -44 -5 c-60 -7 -62 -26 -3 -34 55 -7 57 -6 105 89
36 71 536 994 636 1175 38 69 69 126 68 126 -1 2 -112 8 -331 20 -66 3 -123 3
-127 -2z"/>
<path d="M3641 1458 c-74 -139 -164 -309 -201 -378 -245 -452 -410 -761 -410
-765 0 -3 4 -5 8 -5 5 0 17 18 27 40 10 23 23 43 27 47 5 3 0 -13 -11 -36 -12
-22 -21 -44 -21 -48 1 -4 12 12 24 37 13 25 22 49 18 54 -3 5 2 14 11 21 9 6
81 132 160 281 129 240 478 884 529 974 17 31 18 32 1 14 -10 -12 -23 -30 -30
-40 -10 -17 -11 -17 -6 4 3 12 9 25 14 28 11 7 12 24 1 24 -4 0 -68 -114 -141
-252z"/>
<path d="M3845 1700 c-4 -6 -43 -82 -87 -168 l-80 -157 60 60 c45 45 65 75 82
123 27 75 65 116 117 130 l38 10 -40 1 c-22 1 -50 4 -61 7 -12 3 -25 0 -29 -6z"/>
<path d="M3280 1661 c0 -6 21 -12 48 -14 l47 -3 -51 -2 -50 -2 -52 -192 c-29
-106 -52 -196 -52 -200 0 -4 12 -9 28 -11 25 -4 25 -4 -5 -6 -18 0 -33 -6 -33
-11 0 -7 22 -10 57 -8 l58 3 46 130 c26 72 63 174 82 228 l35 97 -79 0 c-43 0
-79 -4 -79 -9z"/>
<path d="M3881 1588 c-14 -23 -14 -23 8 -4 22 20 25 26 13 26 -4 0 -13 -10
-21 -22z"/>
<path d="M3137 1363 c-14 -26 -39 -97 -56 -158 -18 -60 -47 -138 -66 -171
l-33 -62 33 11 c32 10 33 10 94 214 34 113 60 207 57 210 -2 3 -16 -17 -29
-44z"/>
<path d="M3625 1260 c3 -5 1 -10 -4 -10 -6 0 -11 -6 -11 -14 0 -8 -6 -17 -12
-19 -10 -4 -9 -8 2 -16 13 -9 13 -11 -2 -11 -10 0 -22 -9 -28 -19 -8 -16 -6
-20 8 -24 13 -4 11 -5 -5 -6 -21 -1 -25 -6 -22 -27 0 -3 -8 -12 -18 -19 -24
-18 -18 -21 44 -30 51 -7 53 -6 63 20 19 49 10 185 -12 185 -5 0 -6 -4 -3 -10z"/>
<path d="M3665 1253 c13 -34 18 -131 7 -162 -13 -36 1 -42 19 -8 16 28 15 136
0 165 -14 26 -36 30 -26 5z"/>
<path d="M3178 1193 c-24 -4 -30 -12 -47 -71 -10 -37 -33 -115 -50 -173 -34
-117 -37 -139 -18 -140 6 0 3 -4 -8 -9 -19 -7 -18 -8 7 -15 50 -13 60 -4 89
80 15 44 47 137 72 208 l46 127 -32 -1 c-18 -1 -44 -4 -59 -6z"/>
<path d="M3011 703 c-100 -338 -94 -313 -67 -314 19 -1 19 -2 -4 -9 -24 -8
-24 -8 6 -9 l31 -1 67 193 c36 105 66 195 66 200 0 4 -18 7 -40 7 l-39 0 -20
-67z"/>
</g>
</svg>
